<svg width="49" height="48" viewBox="0 0 49 48" fill="none" xmlns="http://www.w3.org/2000/svg">
<rect x="0.5" width="48" height="48" rx="24" fill="white" fill-opacity="0.12"/>
<path d="M32.5025 15H16.4975C16.2336 15.002 15.981 15.1077 15.7943 15.2943C15.6077 15.481 15.502 15.7336 15.5 15.9975V32.0025C15.502 32.2664 15.6077 32.519 15.7943 32.7057C15.981 32.8923 16.2336 32.998 16.4975 33H25.115V26.04H22.775V23.3175H25.115V21.315C25.115 18.99 26.5325 17.7225 28.6175 17.7225C29.315 17.7225 30.0125 17.7225 30.71 17.8275V20.25H29.2775C28.145 20.25 27.9275 20.79 27.9275 21.5775V23.31H30.6275L30.275 26.0325H27.9275V33H32.5025C32.7664 32.998 33.019 32.8923 33.2057 32.7057C33.3923 32.519 33.498 32.2664 33.5 32.0025V15.9975C33.498 15.7336 33.3923 15.481 33.2057 15.2943C33.019 15.1077 32.7664 15.002 32.5025 15Z" fill="white"/>
</svg>
