<svg width="49" height="48" viewBox="0 0 49 48" fill="none" xmlns="http://www.w3.org/2000/svg">
<rect x="0.5" width="48" height="48" rx="24" fill="white" fill-opacity="0.12"/>
<path d="M32.1575 15H16.8425C16.4935 14.9979 16.1576 15.1325 15.9067 15.3751C15.6558 15.6176 15.5098 15.9487 15.5 16.2975V31.65C15.5079 31.9995 15.6533 32.3317 15.9046 32.5747C16.156 32.8176 16.493 32.9516 16.8425 32.9475H32.1575C32.507 32.9516 32.844 32.8176 33.0954 32.5747C33.3467 32.3317 33.4921 31.9995 33.5 31.65V16.2975C33.4902 15.9487 33.3442 15.6176 33.0933 15.3751C32.8424 15.1325 32.5065 14.9979 32.1575 15ZM20.8325 30.3075H18.1925V21.75H20.8325V30.3075ZM19.5425 20.5575C19.1372 20.5576 18.7479 20.3992 18.4578 20.1161C18.1677 19.8331 17.9998 19.4477 17.99 19.0425C17.9827 18.8367 18.0178 18.6315 18.0932 18.4398C18.1686 18.2482 18.2827 18.0741 18.4284 17.9284C18.574 17.7828 18.7481 17.6687 18.9398 17.5932C19.1315 17.5178 19.3366 17.4827 19.5425 17.49C19.9346 17.5173 20.3018 17.6924 20.5699 17.9798C20.8381 18.2672 20.9872 18.6457 20.9872 19.0388C20.9872 19.4319 20.8381 19.8103 20.5699 20.0977C20.3018 20.3852 19.9346 20.5602 19.5425 20.5875V20.5575ZM30.86 30.255H28.25V26.07C28.25 25.0725 28.25 23.775 26.855 23.775C25.46 23.775 25.25 24.87 25.25 25.9725V30.21H22.58V21.75H25.07V22.875H25.1225C25.3777 22.4318 25.7499 22.0672 26.1983 21.8212C26.6467 21.5752 27.1541 21.4572 27.665 21.48C30.3575 21.48 30.86 23.28 30.86 25.5675V30.255Z" fill="white"/>
</svg>
