<svg width="48" height="48" viewBox="0 0 48 48" fill="none" xmlns="http://www.w3.org/2000/svg">
<rect width="48" height="48" fill="#001035" fill-opacity="0.04"/>
<path fill-rule="evenodd" clip-rule="evenodd" d="M16.5 15H31.5C31.8978 15 32.2794 15.158 32.5607 15.4393C32.842 15.7206 33 16.1022 33 16.5V31.5C33 31.8978 32.842 32.2794 32.5607 32.5607C32.2794 32.842 31.8978 33 31.5 33H16.5C16.1022 33 15.7206 32.842 15.4393 32.5607C15.158 32.2794 15 31.8978 15 31.5V16.5C15 16.1022 15.158 15.7206 15.4393 15.4393C15.7206 15.158 16.1022 15 16.5 15ZM16.5 27V31.5H31.5V30L27.75 26.25L26.5575 27.4425C26.2765 27.7219 25.8963 27.8787 25.5 27.8787C25.1037 27.8787 24.7235 27.7219 24.4425 27.4425L20.25 23.25L16.5 27ZM28.8075 25.185L31.5 27.8775V16.5H16.5V24.8775L19.1925 22.185C19.4735 21.9056 19.8537 21.7488 20.25 21.7488C20.6463 21.7488 21.0265 21.9056 21.3075 22.185L25.5 26.3775L26.6925 25.185C26.9735 24.9056 27.3537 24.7488 27.75 24.7488C28.1463 24.7488 28.5265 24.9056 28.8075 25.185ZM27.5 22.1208C27.13 22.368 26.695 22.5 26.25 22.5C25.6533 22.5 25.081 22.2629 24.659 21.841C24.2371 21.419 24 20.8467 24 20.25C24 19.805 24.132 19.37 24.3792 19C24.6264 18.63 24.9778 18.3416 25.389 18.1713C25.8001 18.001 26.2525 17.9564 26.689 18.0432C27.1254 18.1301 27.5263 18.3443 27.841 18.659C28.1557 18.9737 28.37 19.3746 28.4568 19.811C28.5436 20.2475 28.499 20.6999 28.3287 21.111C28.1584 21.5222 27.87 21.8736 27.5 22.1208ZM26.6667 19.6264C26.5433 19.544 26.3983 19.5 26.25 19.5C26.0511 19.5 25.8603 19.579 25.7197 19.7197C25.579 19.8603 25.5 20.0511 25.5 20.25C25.5 20.3983 25.544 20.5433 25.6264 20.6667C25.7088 20.79 25.8259 20.8861 25.963 20.9429C26.1 20.9997 26.2508 21.0145 26.3963 20.9856C26.5418 20.9567 26.6754 20.8852 26.7803 20.7803C26.8852 20.6754 26.9567 20.5418 26.9856 20.3963C27.0145 20.2508 26.9997 20.1 26.9429 19.963C26.8861 19.8259 26.79 19.7088 26.6667 19.6264Z" fill="#001035"/>
</svg>
