<svg width="49" height="48" viewBox="0 0 49 48" fill="none" xmlns="http://www.w3.org/2000/svg">
<rect x="0.5" width="48" height="48" rx="24" fill="white" fill-opacity="0.12"/>
<path fill-rule="evenodd" clip-rule="evenodd" d="M28.1368 16.6741C27.1878 16.6308 26.9031 16.6216 24.5 16.6216V16.6216C22.0969 16.6216 21.8122 16.6308 20.8632 16.6741C20.2925 16.6809 19.7272 16.7857 19.192 16.984C18.8039 17.1337 18.4514 17.3631 18.1572 17.6573C17.8631 17.9515 17.6337 18.304 17.484 18.6921C17.2857 19.2273 17.1809 19.7926 17.1741 20.3633C17.1307 21.3123 17.1216 21.597 17.1216 24.0001C17.1216 26.4031 17.1308 26.6878 17.1741 27.6368C17.1809 28.2075 17.2857 28.7728 17.484 29.3081C17.6337 29.6962 17.8631 30.0487 18.1572 30.3428C18.4514 30.637 18.8039 30.8663 19.192 31.0161C19.7272 31.2144 20.2925 31.3192 20.8632 31.326C21.8122 31.3694 22.0967 31.3785 24.5 31.3785C26.9033 31.3785 27.1879 31.3693 28.1368 31.326C28.7075 31.3192 29.2728 31.2144 29.808 31.0161C30.1961 30.8663 30.5486 30.637 30.8428 30.3428C31.1369 30.0487 31.3663 29.6962 31.516 29.3081C31.7143 28.7728 31.8191 28.2075 31.8259 27.6368C31.8693 26.6878 31.8784 26.4031 31.8784 24.0001C31.8784 21.597 31.8692 21.3123 31.8259 20.3633C31.8191 19.7926 31.7143 19.2273 31.516 18.6921C31.3663 18.304 31.1369 17.9515 30.8428 17.6573C30.5486 17.3632 30.1961 17.1338 29.808 16.9841C29.2728 16.7858 28.7075 16.6809 28.1368 16.6741ZM20.7893 15.0541C21.7492 15.0103 22.0557 15 24.5 15C26.9443 15 27.2508 15.0103 28.2103 15.0545C28.957 15.0695 29.6957 15.2109 30.395 15.4729C30.9929 15.7041 31.5359 16.0576 31.9893 16.5109C32.4426 16.9641 32.7962 17.5071 33.0275 18.105C33.2894 18.8042 33.4309 19.5428 33.4459 20.2893C33.4896 21.2492 33.5 21.5557 33.5 24C33.5 26.4443 33.4897 26.7508 33.4462 27.7103C33.4313 28.457 33.2898 29.1957 33.0279 29.895C32.7966 30.493 32.443 31.036 31.9897 31.4893C31.5364 31.9426 30.9933 32.2963 30.3954 32.5275C29.696 32.7894 28.9573 32.9309 28.2107 32.9459C27.2508 32.9896 26.9443 33 24.5 33C22.0557 33 21.7492 32.9897 20.7897 32.9462C20.043 32.9313 19.3043 32.7898 18.605 32.5279C18.007 32.2966 17.464 31.943 17.0107 31.4897C16.5573 31.0364 16.2037 30.4933 15.9725 29.8954C15.7106 29.196 15.5691 28.4573 15.5541 27.7107C15.5103 26.7508 15.5 26.4443 15.5 24C15.5 21.5557 15.5103 21.2492 15.5541 20.2897C15.5691 19.543 15.7106 18.8043 15.9725 18.105C16.2037 17.507 16.5573 16.964 17.0107 16.5107C17.464 16.0573 18.007 15.7037 18.605 15.4725C19.3042 15.2106 20.0428 15.0691 20.7893 15.0541ZM29.3042 20.2757C29.9006 20.2757 30.3842 19.7922 30.3842 19.1957C30.3842 18.5993 29.9006 18.1157 29.3042 18.1157C28.7077 18.1157 28.2242 18.5993 28.2242 19.1957C28.2242 19.7922 28.7077 20.2757 29.3042 20.2757ZM24.5 19.3784C23.5859 19.3784 22.6924 19.6495 21.9323 20.1573C21.1723 20.6651 20.5799 21.3869 20.2301 22.2314C19.8803 23.0759 19.7888 24.0052 19.9671 24.9017C20.1455 25.7982 20.5856 26.6217 21.232 27.2681C21.8783 27.9144 22.7018 28.3546 23.5983 28.5329C24.4949 28.7112 25.4241 28.6197 26.2686 28.2699C27.1131 27.9201 27.8349 27.3277 28.3427 26.5677C28.8506 25.8077 29.1216 24.9141 29.1216 24.0001C29.1216 22.7743 28.6347 21.5988 27.768 20.7321C26.9013 19.8653 25.7257 19.3784 24.5 19.3784ZM24.5 27.0001C23.9066 27.0001 23.3266 26.8241 22.8333 26.4945C22.3399 26.1648 21.9554 25.6963 21.7283 25.1481C21.5013 24.5999 21.4419 23.9967 21.5576 23.4148C21.6734 22.8329 21.9591 22.2983 22.3787 21.8787C22.7982 21.4592 23.3328 21.1735 23.9147 21.0577C24.4967 20.942 25.0998 21.0014 25.648 21.2284C26.1962 21.4555 26.6647 21.84 26.9944 22.3334C27.324 22.8267 27.5 23.4067 27.5 24.0001C27.5 24.7957 27.1839 25.5588 26.6213 26.1214C26.0587 26.684 25.2956 27.0001 24.5 27.0001Z" fill="white"/>
</svg>
