<svg width="49" height="48" viewBox="0 0 49 48" fill="none" xmlns="http://www.w3.org/2000/svg">
<rect x="0.5" width="48" height="48" rx="24" fill="white" fill-opacity="0.12"/>
<path d="M21.44 30.705C22.7069 30.713 23.9627 30.4693 25.1346 29.9882C26.3066 29.507 27.3714 28.798 28.2672 27.9022C29.163 27.0064 29.8721 25.9416 30.3532 24.7696C30.8343 23.5977 31.078 22.3418 31.07 21.075C31.07 20.925 31.07 20.7825 31.07 20.6325C31.7267 20.1514 32.2951 19.5601 32.75 18.885C32.1316 19.1554 31.4773 19.3348 30.8075 19.4175C31.5177 18.9943 32.0506 18.3282 32.3075 17.5425C31.6456 17.9396 30.9199 18.2187 30.1625 18.3675C29.6524 17.824 28.9775 17.4638 28.2421 17.3425C27.5067 17.2213 26.7518 17.3458 26.0943 17.6967C25.4368 18.0477 24.9132 18.6056 24.6047 19.284C24.2962 19.9625 24.2198 20.7238 24.3875 21.45C23.042 21.3839 21.7255 21.0353 20.5238 20.4266C19.322 19.818 18.2619 18.963 17.4125 17.9175C16.9842 18.6609 16.8544 19.5392 17.0493 20.3747C17.2443 21.2102 17.7494 21.9404 18.4625 22.4175C17.9365 22.3972 17.4226 22.2533 16.9625 21.9975V22.035C16.9578 22.8119 17.2195 23.5669 17.704 24.1742C18.1885 24.7815 18.8665 25.2044 19.625 25.3725C19.1357 25.5041 18.6232 25.5246 18.125 25.4325C18.3446 26.095 18.7638 26.6734 19.325 27.0883C19.8863 27.5032 20.5622 27.7344 21.26 27.75C20.0669 28.7104 18.5841 29.239 17.0525 29.25C16.784 29.2422 16.5161 29.2197 16.25 29.1825C17.8002 30.1702 19.6019 30.6909 21.44 30.6825" fill="white"/>
</svg>
