<svg width="49" height="48" viewBox="0 0 49 48" fill="none" xmlns="http://www.w3.org/2000/svg">
<rect x="0.5" width="48" height="48" rx="24" fill="white" fill-opacity="0.12"/>
<path d="M34.5575 18.9449C34.438 18.5009 34.204 18.0961 33.8789 17.771C33.5538 17.4459 33.149 17.2119 32.705 17.0924C31.07 16.6499 24.5 16.6499 24.5 16.6499C24.5 16.6499 17.93 16.6499 16.295 17.0924C15.851 17.2119 15.4462 17.4459 15.1211 17.771C14.796 18.0961 14.562 18.5009 14.4425 18.9449C14.1372 20.6124 13.9891 22.3048 14 23.9999C13.9891 25.695 14.1372 27.3875 14.4425 29.0549C14.562 29.4989 14.796 29.9037 15.1211 30.2288C15.4462 30.5539 15.851 30.7879 16.295 30.9074C17.93 31.3499 24.5 31.3499 24.5 31.3499C24.5 31.3499 31.07 31.3499 32.705 30.9074C33.149 30.7879 33.5538 30.5539 33.8789 30.2288C34.204 29.9037 34.438 29.4989 34.5575 29.0549C34.8628 27.3875 35.011 25.695 35 23.9999C35.011 22.3048 34.8628 20.6124 34.5575 18.9449ZM22.4 27.1499V20.8499L27.8525 23.9999L22.4 27.1499Z" fill="white"/>
</svg>
